<?xml version="1.0" standalone="no"?><!DOCTYPE svg PUBLIC "-//W3C//DTD SVG 1.1//EN" "http://www.w3.org/Graphics/SVG/1.1/DTD/svg11.dtd"><svg t="1564048059194" class="icon" viewBox="0 0 1024 1024" version="1.1" xmlns="http://www.w3.org/2000/svg" p-id="4408" xmlns:xlink="http://www.w3.org/1999/xlink" width="144" height="144"><defs><style type="text/css"></style></defs><path d="M767.994612 68.617263C523.263739-72.691776 209.926303 11.274465 68.617263 256.005337S11.274465 814.073646 256.005338 955.382686s558.068308 57.342799 699.377348-187.388075S1012.725484 209.926303 767.994612 68.617263zM279.044855 915.959511C55.817532 786.938214-20.46887 501.760189 108.040438 279.044855 237.061735 55.817531 522.23976-20.46887 744.955094 108.040437c223.227323 129.021297 299.513725 414.199323 170.492428 636.914657C786.938215 968.182417 501.760189 1044.468819 279.044855 915.959511z" fill="#F56C6C" p-id="4409"></path><path d="M740.347191 116.744255C522.23976-9.205106 243.205606 65.545328 117.256245 283.652758s-51.198927 497.141585 166.908503 623.090947 497.141585 51.198927 623.090946-166.908504 51.198927-497.141585-166.908503-623.090946zM291.844587 893.431983C80.905006 772.090526 8.714518 502.272178 130.567966 291.844587S521.727771 8.714518 732.155362 130.567965s283.130068 391.159805 161.276622 602.099386S502.272178 1015.285431 291.844587 893.431983z" fill="#F56C6C" p-id="4410"></path><path d="M499.200243 281.092812L435.713573 391.170506l-40.959142 10.239785-59.902745-34.303281 14.3357-25.087475 57.342798 33.279303 50.686938-87.038176-34.81527-19.967582-11.263764 11.263764-31.231346-18.431614 36.863228-37.887206 31.231345 17.919625-6.143871 7.167849 57.342799 32.767314z m-66.558606-74.238445L420.353895 199.686517l14.335699-24.575485 12.287743 7.16785 5.119893-8.703818 30.207367 17.407636-5.119893 8.703817 17.407635 10.239786 5.119893-8.703818 29.695378 16.895646-5.119893 8.703818 10.239786 5.631882-20.479571 20.479571-3.583925-2.047957-5.631882 9.215807-34.303282-9.215807 9.727797-16.895646-17.407636-10.239786-5.631882 9.727796-34.81527-9.215806 10.239785-17.407636zM348.675396 334.339696l36.863228-63.998659 56.31882 32.767314-25.087474 43.519088-36.351239 6.143871-31.743335-18.431614z m36.863228-5.631882l6.655861 3.583925 13.311721-23.039517-6.655861-3.583925-13.311721 23.039517z m150.524846 1.535968l31.231346-22.015539 35.32726 20.479571-71.166509 50.174949-8.191828 92.670059-34.815271-20.479571 4.095914-44.031078-37.887206 27.135432-35.32726-19.967582 76.798391-55.806831 6.655861-77.822369 35.32726 20.479571-2.047958 29.183388z m15.359679-101.373876l31.231345 17.919625-9.727796 10.239785 56.31882 32.255324-18.943603 18.943603-55.806831-31.743335-16.383656 15.359679-31.231346-17.919625 44.543067-45.055056zM622.077668 347.651418l45.567046 26.111452-64.510649 111.613662 15.871668 9.215807-26.111453 18.431614-37.887206-21.50355L619.517722 379.394752l-11.775753-6.65586 14.335699-25.087474z m62.462692-40.959142c3.071936 2.047957 5.631882 4.607903 7.679839 8.191828 2.047957 3.583925 3.583925 7.679839 3.071936 11.775753 0 4.095914-1.023979 8.191828-3.071936 11.263764-2.047957 3.583925-5.119893 6.143871-8.191828 8.191829s-7.16785 3.071936-11.263764 3.071935c-4.095914 0-7.679839-1.023979-11.263764-3.071935-3.583925-2.047957-6.143871-4.607903-8.191829-8.191829-2.047957-3.583925-3.071936-7.16785-3.071935-11.263764 0-4.095914 1.023979-7.679839 3.071935-11.263764 2.047957-3.583925 4.607903-6.143871 8.191829-8.191828 3.583925-2.047957 7.16785-3.071936 11.775753-3.071936 4.607903 0 8.191828 1.023979 11.263764 2.559947z m49.662959 103.933822l-44.543066-25.599464 11.775753-19.967581 44.543067 25.599464 5.631882-9.215807-43.519089-25.087475 11.263765-19.967582 43.519088 25.087475 5.119893-8.703818 33.791292 19.455593-4.607904 8.703817 49.66296 28.6714-21.50355 14.335699-39.423174-23.039517-5.631882 9.215807 49.15097 28.15941-21.503549 14.3357L767.994612 430.081691l-5.119893 8.703817 50.686938 29.183389-21.50355 13.82371L670.71665 412.162066l11.263764-19.455592 47.103013 27.135431 5.119892-9.215807z m-125.949361 113.661619l59.902745-103.421833L793.594075 493.568361l-48.126992 83.454251-43.519088 1.023979-32.767313-18.943603 11.263764-19.455593 31.743335 18.431614 37.375217-64.510648-58.366778-33.791293-5.631882 9.727797 56.318821 32.255324-14.3357 13.311721-51.198927-29.695378-5.119893 9.215807 53.246884 30.719357-13.82371 13.311721-48.638981-28.15941-10.751775 18.431613h-2.047957l-40.959142-4.607903zM241.669638 609.789926l-35.32726 30.719356-32.767313-18.943603 35.839249-30.207367 32.255324 18.431614z m48.126992-174.076353l4.607903-8.191829 31.743335 18.431614-4.607903 8.191828 23.551506 13.311722 4.607904-8.191829 31.743335 18.431614-4.607904 8.191828 9.727797 5.631882-20.479571 17.407636-2.559947-0.51199-59.902745 103.933823 10.751775 6.143871-21.50355 16.383657-94.206026-54.270863 12.287743-21.503549 5.631882 3.071935L276.484909 458.241101l-5.631882-3.583925 12.799731-22.527528 6.143872 3.583925zM296.96448 496.128307l23.551506 13.311721 11.263764-19.967582-23.551506-13.311721-11.263764 19.967582z m-23.551507 40.959142l23.551507 13.311721 11.775753-19.967582-23.551507-13.311721-11.775753 19.967582z m-24.575485 43.007099l23.551506 13.311721 12.799732-22.015539L261.12523 558.079009l-12.287742 22.015539z m28.15941 101.373876l-32.255324-18.431614 6.65586-46.591024 31.743335 18.431614-6.143871 46.591024z m0.511989 3.583925l19.967582-34.303281 93.694037-162.812589 88.574144 51.198927-98.813929 170.492428-44.543067 4.095914-16.895646-9.215807L332.803729 680.956435l16.383657 9.215807 26.111453-45.055056-16.895647 7.679839-14.847688-8.703818-25.599464 44.543067-40.447153-3.583925z m111.101673-119.293501l24.063496 13.823711 21.503549-37.375217-24.063496-13.823711-21.503549 37.375217z m-32.767314 56.31882l24.063496 13.823711 27.135431-47.615003-16.895646 7.679839-14.847688-8.703817-19.455593 34.81527zM507.392071 621.565679l-33.791292-19.455592 56.830809-37.375217 32.255325 18.943603-55.294842 37.887206z m17.919625 16.383657l-19.967582 16.895646-61.950702 107.517747-39.423174-6.65586 49.662959-86.014198-12.799731-7.679839 53.758873-42.49511 30.719357 18.431614z m47.615002 37.375217l15.359678-26.623442-47.615002-27.135432 13.311721-22.527528 47.615003 27.135431 9.727796-16.383656 33.791292 19.455592-10.239786 15.871668 52.222906 30.207367-24.063496 16.383657-41.471131-24.063496-15.359678 26.623442 57.342799 32.767313-23.551507 16.895646-130.045275-75.262423 13.311721-22.527528 49.662959 29.183389zM619.517722 757.754826l22.015539 12.799732-23.039517 16.895646-12.287743-7.16785-23.551507 40.447153-37.375217 12.799731-32.255324-18.431613 13.311721-22.527529 20.991561 12.287743 25.087474-43.007099-87.038177-50.174949 12.799732-22.527528 87.038177 50.174949 8.703817-14.847689 33.791293 19.455592-8.191829 13.823711z m-107.005758-17.407635c3.071936 2.047957 5.631882 4.607903 8.191828 8.191828 2.559946 3.583925 3.583925 7.679839 3.583925 11.775753 0 4.095914-1.023979 8.191828-3.071935 11.775754-2.047957 3.583925-4.607903 6.143871-8.191829 8.191828-3.583925 2.047957-7.16785 3.071936-11.775753 3.071936s-8.191828-1.023979-11.775753-3.071936c-3.583925-2.047957-6.655861-4.607903-8.703818-8.191828s-3.071936-7.679839-3.071936-11.775754c0-4.095914 1.023979-7.679839 3.071936-11.263764 2.047957-3.583925 4.607903-6.143871 8.703818-8.703817 3.583925-2.047957 7.679839-3.071936 11.775753-3.071936 4.095914 0 8.191828 1.023979 11.263764 3.071936z" fill="#F56C6C" p-id="4411"></path></svg>