<?xml version="1.0" standalone="no"?><!DOCTYPE svg PUBLIC "-//W3C//DTD SVG 1.1//EN" "http://www.w3.org/Graphics/SVG/1.1/DTD/svg11.dtd"><svg t="1563243222647" class="icon" viewBox="0 0 1024 1024" version="1.1" xmlns="http://www.w3.org/2000/svg" p-id="1564" xmlns:xlink="http://www.w3.org/1999/xlink" width="144" height="144"><defs><style type="text/css"></style></defs><path d="M512 960C264.96 960 64 759.018667 64 512 64 264.981333 264.96 64 512 64 759.04 64 960 264.981333 960 512 960 759.018667 759.04 960 512 960ZM738.282667 285.738667C729.941333 277.397333 716.437333 277.397333 708.096 285.738667L586.048 407.786667C565.12 392.874667 539.605333 384 512 384 441.408 384 384 441.408 384 512 384 539.605333 392.874667 565.12 407.765333 586.048L285.717333 708.096C277.397333 716.437333 277.397333 729.941333 285.717333 738.261333 289.898667 742.442667 295.36 744.512 300.821333 744.512 306.282667 744.512 311.744 742.442667 315.904 738.261333L437.952 616.213333C458.858667 631.125333 484.394667 640 512 640 582.592 640 640 582.592 640 512 640 484.394667 631.125333 458.88 616.213333 437.952L738.282667 315.904C746.602667 307.562667 746.602667 294.058667 738.282667 285.738667ZM512 597.333333C464.96 597.333333 426.666667 559.061333 426.666667 512 426.666667 464.938667 464.96 426.666667 512 426.666667 559.061333 426.666667 597.333333 464.938667 597.333333 512 597.333333 559.061333 559.061333 597.333333 512 597.333333Z" p-id="1565" fill="#F56C6C"></path></svg>